<svg viewBox="0 0 163 24"
     xmlns="http://www.w3.org/2000/svg">
    <defs>
        <linearGradient x1="68.693%"
                        y1="57.911%"
                        x2="9.995%"
                        y2="92.123%"
                        id="a">
            <stop stop-color="#F50057"
                  offset="0%"/>
            <stop stop-color="#4B001B"
                  offset="99.929%"/>
        </linearGradient>
    </defs>
    <g fill="none"
       fill-rule="evenodd">
        <path d="M42.312 21c-.36 0-.552-.312-.408-.624l7.512-16.152a.487.487 0 01.408-.264h.24c.168 0 .336.12.408.264l7.512 16.152c.144.312-.048.624-.408.624h-2.664c-.432 0-.624-.144-.84-.6l-.864-1.896H46.68l-.864 1.92c-.12.288-.384.576-.864.576h-2.64zm5.808-5.76h3.648l-1.824-3.96h-.024l-1.8 3.96zm11.492 4.152c-.24-.24-.312-.336-.12-.672l1.128-1.992c.192-.312.648-.264.816-.144.096.048 1.824 1.32 3.408 1.32.96 0 1.656-.6 1.656-1.44 0-1.008-.84-1.776-2.472-2.424-2.064-.816-4.656-2.424-4.656-5.304 0-2.376 1.848-4.776 5.544-4.776 2.496 0 4.416 1.272 5.136 1.8.288.168.24.6.144.768l-1.224 1.848c-.168.264-.6.48-.816.312-.216-.12-1.968-1.44-3.432-1.44-.864 0-1.512.576-1.512 1.224 0 .888.72 1.56 2.616 2.328 1.872.744 4.848 2.208 4.848 5.472 0 2.472-2.136 4.968-5.664 4.968-3.12 0-4.848-1.296-5.4-1.848zm13.652 0c-.24-.24-.312-.336-.12-.672l1.128-1.992c.192-.312.648-.264.816-.144.096.048 1.824 1.32 3.408 1.32.96 0 1.656-.6 1.656-1.44 0-1.008-.84-1.776-2.472-2.424-2.064-.816-4.656-2.424-4.656-5.304 0-2.376 1.848-4.776 5.544-4.776 2.496 0 4.416 1.272 5.136 1.8.288.168.24.6.144.768l-1.224 1.848c-.168.264-.6.48-.816.312-.216-.12-1.968-1.44-3.432-1.44-.864 0-1.512.576-1.512 1.224 0 .888.72 1.56 2.616 2.328 1.872.744 4.848 2.208 4.848 5.472 0 2.472-2.136 4.968-5.664 4.968-3.12 0-4.848-1.296-5.4-1.848zm14.492 1.152V4.656c0-.24.192-.456.456-.456h9.936c.264 0 .456.216.456.456v2.616c0 .24-.192.456-.456.456H91.5v2.976h5.472c.24 0 .456.216.456.456v2.616a.456.456 0 01-.456.456H91.5v3.24h6.648c.264 0 .456.216.456.456v2.616c0 .24-.192.456-.456.456h-9.936a.456.456 0 01-.456-.456zm13.508-.072l2.712-16.128a.459.459 0 01.432-.384h.384c.12 0 .336.096.408.24l5.568 10.368h.048L116.384 4.2c.072-.144.288-.24.408-.24h.384c.192 0 .408.168.432.384l2.712 16.128c.048.312-.168.528-.456.528h-2.832c-.216 0-.432-.192-.456-.384l-1.08-7.416h-.048l-4.032 7.776a.562.562 0 01-.408.264h-.432a.522.522 0 01-.408-.264l-4.056-7.776h-.048l-1.056 7.416a.467.467 0 01-.456.384h-2.832c-.288 0-.504-.216-.456-.528zm22.628.072V4.656c0-.24.192-.456.456-.456h5.592c2.832 0 5.16 1.944 5.16 4.464 0 1.848-1.656 3.192-2.784 3.792 1.272.528 3.216 1.704 3.216 3.912 0 2.688-2.376 4.632-5.232 4.632h-5.952a.456.456 0 01-.456-.456zm3.744-9.528h1.872c.912 0 1.68-.768 1.68-1.728s-.768-1.632-1.68-1.632h-1.872v3.36zm0 6.552h2.184c.936 0 1.728-.768 1.728-1.752 0-.96-1.032-1.68-1.968-1.68h-1.944v3.432zm11.444 2.976V4.656c0-.24.192-.456.456-.456h2.856c.24 0 .456.216.456.456v12.816h5.712c.264 0 .456.216.456.456v2.616c0 .24-.192.456-.456.456h-9.024a.456.456 0 01-.456-.456zm14.708 0v-7.632l-5.304-8.016c-.192-.312 0-.696.384-.696h3.12c.192 0 .312.12.384.216l3.336 4.92 3.336-4.92c.072-.096.168-.216.384-.216h3.12c.384 0 .576.384.384.696l-5.376 7.992v7.656c0 .24-.216.456-.456.456h-2.856a.456.456 0 01-.456-.456z"
              fill="#FFF"
              fill-rule="nonzero"/>
        <path d="M25.578 7.155l7.528 15.056A4 4 0 0129.528 28H14.472a4 4 0 01-3.578-5.789l7.528-15.056a4 4 0 017.156 0z"
              fill="url(#a)"
              transform="translate(-2 -4)"/>
        <path d="M13.578 7.155L22 24H4.472a4 4 0 01-3.578-5.789L6.422 7.155a4 4 0 017.156 0z"
              fill="#F50057"/>
    </g>
</svg>
