<svg xmlns="http://www.w3.org/2000/svg" viewBox="0 0 155 24">
    <defs>
        <linearGradient x1="68.693%" y1="57.911%" x2="9.995%" y2="92.123%" id="linearGradient-1">
            <stop stop-color="#F50057" offset="0%" />
            <stop stop-color="#4B001B" offset="99.929%" />
        </linearGradient>
    </defs>
    <g id="Page-1" stroke="none" stroke-width="1" fill="none" fill-rule="evenodd">
        <g id="Logo" transform="translate(-686 -916)">
            <g transform="translate(608 760)" id="Light-Card">
                <g id="Logo" transform="translate(78 152)">
                    <g id="Text" transform="translate(43 3)" fill="#3F414B" fill-rule="nonzero">
                        <path d="M3.344 21l.924-2.772h6.138L11.33 21h3.3L9.218 5.6H5.456L.066 21h3.278zm6.116-5.61H5.236l2.112-6.292L9.46 15.39zm12.572 5.918c.807 0 1.555-.106 2.244-.319a5.269 5.269 0 001.782-.924 4.12 4.12 0 001.155-1.474c.271-.58.407-1.221.407-1.925 0-.733-.154-1.393-.462-1.98-.308-.587-.788-1.078-1.441-1.474-.653-.396-1.698-.821-3.135-1.276-1.173-.352-1.954-.682-2.343-.99-.389-.308-.583-.697-.583-1.166 0-.44.183-.807.55-1.1.367-.293.858-.44 1.474-.44 1.35 0 2.332.66 2.948 1.98l2.552-1.474c-.528-1.085-1.265-1.932-2.211-2.541s-2.042-.913-3.289-.913c-.66 0-1.335.117-2.024.352a4.378 4.378 0 00-1.76 1.1c-.484.499-.818 1.016-1.001 1.551a4.838 4.838 0 00-.275 1.573c0 .85.187 1.57.561 2.156a4.286 4.286 0 001.529 1.43c.645.367 1.496.704 2.552 1.012 1.51.44 2.442.821 2.794 1.144.352.323.528.69.528 1.1 0 .47-.202.858-.605 1.166-.403.308-1.023.462-1.859.462-.91 0-1.657-.209-2.244-.627-.587-.418-1.02-.994-1.298-1.727l-2.596 1.518a5.472 5.472 0 002.2 2.783c1.041.682 2.325 1.023 3.85 1.023zm13.364 0c.807 0 1.555-.106 2.244-.319a5.269 5.269 0 001.782-.924 4.12 4.12 0 001.155-1.474c.271-.58.407-1.221.407-1.925 0-.733-.154-1.393-.462-1.98-.308-.587-.788-1.078-1.441-1.474-.653-.396-1.698-.821-3.135-1.276-1.173-.352-1.954-.682-2.343-.99-.389-.308-.583-.697-.583-1.166 0-.44.183-.807.55-1.1.367-.293.858-.44 1.474-.44 1.35 0 2.332.66 2.948 1.98l2.552-1.474c-.528-1.085-1.265-1.932-2.211-2.541s-2.042-.913-3.289-.913c-.66 0-1.335.117-2.024.352a4.378 4.378 0 00-1.76 1.1c-.484.499-.818 1.016-1.001 1.551a4.838 4.838 0 00-.275 1.573c0 .85.187 1.57.561 2.156a4.286 4.286 0 001.529 1.43c.645.367 1.496.704 2.552 1.012 1.51.44 2.442.821 2.794 1.144.352.323.528.69.528 1.1 0 .47-.202.858-.605 1.166-.403.308-1.023.462-1.859.462-.91 0-1.657-.209-2.244-.627-.587-.418-1.02-.994-1.298-1.727l-2.596 1.518a5.472 5.472 0 002.2 2.783c1.041.682 2.325 1.023 3.85 1.023zM53.38 21v-2.904h-6.49v-3.454h5.83v-2.86h-5.83V8.504h6.38V5.6h-9.416V21h9.526zm6.17 0v-9.966l4.334 7.128h.352l4.334-7.15V21h3.014V5.6H68.46l-4.4 7.282L59.638 5.6h-3.124V21h3.036zm22.428 0c.821 0 1.617-.187 2.387-.561a4.064 4.064 0 001.782-1.639 4.44 4.44 0 00.627-2.266c0-.777-.18-1.47-.539-2.079a3.895 3.895 0 00-1.485-1.441c.455-.367.81-.814 1.067-1.342a3.922 3.922 0 00.385-1.738c0-.616-.121-1.195-.363-1.738a3.987 3.987 0 00-1.012-1.386 4.767 4.767 0 00-1.507-.891 5.134 5.134 0 00-1.804-.319h-6.072V21h6.534zm-.462-9.174H78.48V8.438h3.036c.47 0 .862.161 1.177.484.315.323.473.726.473 1.21s-.158.887-.473 1.21a1.579 1.579 0 01-1.177.484zm.462 6.336H78.48v-3.63h3.498c.513 0 .939.172 1.276.517.337.345.506.774.506 1.287 0 .513-.169.946-.506 1.298-.337.352-.763.528-1.276.528zM98.664 21v-2.904H92.79V5.6h-3.036V21h8.91zm7.622 0v-6.006l5.28-9.394h-3.432l-3.344 6.424-3.344-6.424h-3.432l5.258 9.394V21h3.014z" id="ASSEMBLY" />
                    </g>
                    <g id="Triangles">
                        <path d="M23.578 7.155l7.528 15.056A4 4 0 0127.528 28H12.472a4 4 0 01-3.578-5.789l7.528-15.056a4 4 0 017.156 0z" id="Triangle" fill="url(#linearGradient-1)" />
                        <path d="M13.578 11.155L22 28H4.472a4 4 0 01-3.578-5.789l5.528-11.056a4 4 0 017.156 0z" id="Triangle" fill="#F50057" />
                    </g>
                </g>
            </g>
        </g>
    </g>
</svg>