<?xml version="1.0" encoding="UTF-8"?>
<svg width="32px" height="24px" viewBox="0 0 32 24" version="1.1" xmlns="http://www.w3.org/2000/svg">
    <defs>
        <linearGradient x1="68.6933245%" y1="57.9110282%" x2="10.2041891%" y2="92.0014018%" id="linearGradient-1">
            <stop stop-color="#FFFFFF" offset="0%"></stop>
            <stop stop-color="#808080" offset="99.9287373%"></stop>
        </linearGradient>
    </defs>
    <g id="Page-1" stroke="none" stroke-width="1" fill="none" fill-rule="evenodd">
        <g id="Logo" transform="translate(-1077.000000, -860.000000)">
            <g transform="translate(608.000000, 760.000000)" id="Dark-Card">
                <g transform="translate(384.000000, 1.000000)">
                    <g id="Triangles" transform="translate(83.000000, 95.000000)">
                        <path d="M25.5777088,7.15541753 L33.1055728,22.2111456 C34.0935298,24.1870596 33.2926324,26.5897518 31.3167184,27.5777088 C30.7612967,27.8554196 30.1488444,28 29.527864,28 L14.472136,28 C12.262997,28 10.472136,26.209139 10.472136,24 C10.472136,23.3790196 10.6167163,22.7665674 10.8944272,22.2111456 L18.4222912,7.15541753 C19.4102482,5.17950354 21.8129404,4.37860615 23.7888544,5.36656315 C24.562964,5.75361795 25.190654,6.38130792 25.5777088,7.15541753 Z" id="Triangle" fill="url(#linearGradient-1)"></path>
                        <path d="M15.5777088,11.1554175 L24,28 L24,28 L6.47213595,28 C4.26299696,28 2.47213595,26.209139 2.47213595,24 C2.47213595,23.3790196 2.61671632,22.7665674 2.89442719,22.2111456 L8.42229124,11.1554175 C9.41024823,9.17950354 11.8129404,8.37860615 13.7888544,9.36656315 C14.562964,9.75361795 15.190654,10.3813079 15.5777088,11.1554175 Z" id="Triangle" fill="#FFFFFF"></path>
                    </g>
                </g>
            </g>
        </g>
    </g>
</svg>