<?xml version="1.0" encoding="UTF-8"?>
<svg width="164px" height="24px" viewBox="0 0 164 24" version="1.1" xmlns="http://www.w3.org/2000/svg" xmlns:xlink="http://www.w3.org/1999/xlink">
    <!-- Generator: Sketch 53.1 (72631) - https://sketchapp.com -->
    <title>Logo - rastered text</title>
    <desc>Created with Sketch.</desc>
    <defs>
        <linearGradient x1="68.6933245%" y1="57.9110282%" x2="9.99533818%" y2="92.1231305%" id="linearGradient-1">
            <stop stop-color="#F50057" offset="0%"></stop>
            <stop stop-color="#4B001B" offset="99.9287373%"></stop>
        </linearGradient>
    </defs>
    <g id="Page-1" stroke="none" stroke-width="1" fill="none" fill-rule="evenodd">
        <g id="Logo" transform="translate(-687.000000, -1007.000000)">
            <g transform="translate(608.000000, 760.000000)" id="Light-Card">
                <g>
                    <g id="Logo---rastered-text" transform="translate(77.000000, 243.000000)">
                        <path d="M45.312,25 C44.952,25 44.76,24.688 44.904,24.376 L52.416,8.224 C52.488,8.08 52.656,7.96 52.824,7.96 L53.064,7.96 C53.232,7.96 53.4,8.08 53.472,8.224 L60.984,24.376 C61.128,24.688 60.936,25 60.576,25 L57.912,25 C57.48,25 57.288,24.856 57.072,24.4 L56.208,22.504 L49.68,22.504 L48.816,24.424 C48.696,24.712 48.432,25 47.952,25 L45.312,25 Z M51.12,19.24 L54.768,19.24 L52.944,15.28 L52.92,15.28 L51.12,19.24 Z M62.612,23.392 C62.372,23.152 62.3,23.056 62.492,22.72 L63.62,20.728 C63.812,20.416 64.268,20.464 64.436,20.584 C64.532,20.632 66.26,21.904 67.844,21.904 C68.804,21.904 69.5,21.304 69.5,20.464 C69.5,19.456 68.66,18.688 67.028,18.04 C64.964,17.224 62.372,15.616 62.372,12.736 C62.372,10.36 64.22,7.96 67.916,7.96 C70.412,7.96 72.332,9.232 73.052,9.76 C73.34,9.928 73.292,10.36 73.196,10.528 L71.972,12.376 C71.804,12.64 71.372,12.856 71.156,12.688 C70.94,12.568 69.188,11.248 67.724,11.248 C66.86,11.248 66.212,11.824 66.212,12.472 C66.212,13.36 66.932,14.032 68.828,14.8 C70.7,15.544 73.676,17.008 73.676,20.272 C73.676,22.744 71.54,25.24 68.012,25.24 C64.892,25.24 63.164,23.944 62.612,23.392 Z M76.264,23.392 C76.024,23.152 75.952,23.056 76.144,22.72 L77.272,20.728 C77.464,20.416 77.92,20.464 78.088,20.584 C78.184,20.632 79.912,21.904 81.496,21.904 C82.456,21.904 83.152,21.304 83.152,20.464 C83.152,19.456 82.312,18.688 80.68,18.04 C78.616,17.224 76.024,15.616 76.024,12.736 C76.024,10.36 77.872,7.96 81.568,7.96 C84.064,7.96 85.984,9.232 86.704,9.76 C86.992,9.928 86.944,10.36 86.848,10.528 L85.624,12.376 C85.456,12.64 85.024,12.856 84.808,12.688 C84.592,12.568 82.84,11.248 81.376,11.248 C80.512,11.248 79.864,11.824 79.864,12.472 C79.864,13.36 80.584,14.032 82.48,14.8 C84.352,15.544 87.328,17.008 87.328,20.272 C87.328,22.744 85.192,25.24 81.664,25.24 C78.544,25.24 76.816,23.944 76.264,23.392 Z M90.756,24.544 L90.756,8.656 C90.756,8.416 90.948,8.2 91.212,8.2 L101.148,8.2 C101.412,8.2 101.604,8.416 101.604,8.656 L101.604,11.272 C101.604,11.512 101.412,11.728 101.148,11.728 L94.5,11.728 L94.5,14.704 L99.972,14.704 C100.212,14.704 100.428,14.92 100.428,15.16 L100.428,17.776 C100.428,18.04 100.212,18.232 99.972,18.232 L94.5,18.232 L94.5,21.472 L101.148,21.472 C101.412,21.472 101.604,21.688 101.604,21.928 L101.604,24.544 C101.604,24.784 101.412,25 101.148,25 L91.212,25 C90.948,25 90.756,24.784 90.756,24.544 Z M104.264,24.472 L106.976,8.344 C107,8.128 107.216,7.96 107.408,7.96 L107.792,7.96 C107.912,7.96 108.128,8.056 108.2,8.2 L113.768,18.568 L113.816,18.568 L119.384,8.2 C119.456,8.056 119.672,7.96 119.792,7.96 L120.176,7.96 C120.368,7.96 120.584,8.128 120.608,8.344 L123.32,24.472 C123.368,24.784 123.152,25 122.864,25 L120.032,25 C119.816,25 119.6,24.808 119.576,24.616 L118.496,17.2 L118.448,17.2 L114.416,24.976 C114.344,25.12 114.128,25.24 114.008,25.24 L113.576,25.24 C113.432,25.24 113.24,25.12 113.168,24.976 L109.112,17.2 L109.064,17.2 L108.008,24.616 C107.984,24.808 107.792,25 107.552,25 L104.72,25 C104.432,25 104.216,24.784 104.264,24.472 Z M126.892,24.544 L126.892,8.656 C126.892,8.416 127.084,8.2 127.348,8.2 L132.94,8.2 C135.772,8.2 138.1,10.144 138.1,12.664 C138.1,14.512 136.444,15.856 135.316,16.456 C136.588,16.984 138.532,18.16 138.532,20.368 C138.532,23.056 136.156,25 133.3,25 L127.348,25 C127.084,25 126.892,24.784 126.892,24.544 Z M130.636,15.016 L132.508,15.016 C133.42,15.016 134.188,14.248 134.188,13.288 C134.188,12.328 133.42,11.656 132.508,11.656 L130.636,11.656 L130.636,15.016 Z M130.636,21.568 L132.82,21.568 C133.756,21.568 134.548,20.8 134.548,19.816 C134.548,18.856 133.516,18.136 132.58,18.136 L130.636,18.136 L130.636,21.568 Z M142.08,24.544 L142.08,8.656 C142.08,8.416 142.272,8.2 142.536,8.2 L145.392,8.2 C145.632,8.2 145.848,8.416 145.848,8.656 L145.848,21.472 L151.56,21.472 C151.824,21.472 152.016,21.688 152.016,21.928 L152.016,24.544 C152.016,24.784 151.824,25 151.56,25 L142.536,25 C142.272,25 142.08,24.784 142.08,24.544 Z M156.788,24.544 L156.788,16.912 L151.484,8.896 C151.292,8.584 151.484,8.2 151.868,8.2 L154.988,8.2 C155.18,8.2 155.3,8.32 155.372,8.416 L158.708,13.336 L162.044,8.416 C162.116,8.32 162.212,8.2 162.428,8.2 L165.548,8.2 C165.932,8.2 166.124,8.584 165.932,8.896 L160.556,16.888 L160.556,24.544 C160.556,24.784 160.34,25 160.1,25 L157.244,25 C156.98,25 156.788,24.784 156.788,24.544 Z" id="ASSEMBLY" fill="#3F414B" fill-rule="nonzero"></path>
                        <g id="Triangles">
                            <path d="M25.5777088,7.15541753 L33.1055728,22.2111456 C34.0935298,24.1870596 33.2926324,26.5897518 31.3167184,27.5777088 C30.7612967,27.8554196 30.1488444,28 29.527864,28 L14.472136,28 C12.262997,28 10.472136,26.209139 10.472136,24 C10.472136,23.3790196 10.6167163,22.7665674 10.8944272,22.2111456 L18.4222912,7.15541753 C19.4102482,5.17950354 21.8129404,4.37860615 23.7888544,5.36656315 C24.562964,5.75361795 25.190654,6.38130792 25.5777088,7.15541753 Z" id="Triangle" fill="url(#linearGradient-1)"></path>
                            <path d="M15.5777088,11.1554175 L24,28 L6.47213595,28 C4.26299696,28 2.47213595,26.209139 2.47213595,24 C2.47213595,23.3790196 2.61671632,22.7665674 2.89442719,22.2111456 L8.42229124,11.1554175 C9.41024823,9.17950354 11.8129404,8.37860615 13.7888544,9.36656315 C14.562964,9.75361795 15.190654,10.3813079 15.5777088,11.1554175 Z" id="Triangle" fill="#F50057"></path>
                        </g>
                    </g>
                </g>
            </g>
        </g>
    </g>
</svg>