<?xml version="1.0" encoding="UTF-8"?>
<svg width="163px" height="24px" viewBox="0 0 163 24" version="1.1" xmlns="http://www.w3.org/2000/svg" xmlns:xlink="http://www.w3.org/1999/xlink">
    <!-- Generator: Sketch 53.1 (72631) - https://sketchapp.com -->
    <title>Logo - rastered text</title>
    <desc>Created with Sketch.</desc>
    <defs>
        <linearGradient x1="68.6933245%" y1="57.9110282%" x2="9.99533818%" y2="92.1231305%" id="linearGradient-1">
            <stop stop-color="#F50057" offset="0%"></stop>
            <stop stop-color="#4B001B" offset="99.9287373%"></stop>
        </linearGradient>
    </defs>
    <g id="Page-1" stroke="none" stroke-width="1" fill="none" fill-rule="evenodd">
        <g id="Logo" transform="translate(-1072.000000, -1008.000000)">
            <g transform="translate(608.000000, 760.000000)" id="Dark-Card">
                <g transform="translate(384.000000, 1.000000)">
                    <g id="Logo---rastered-text" transform="translate(78.000000, 243.000000)">
                        <path d="M44.312,25 C43.952,25 43.76,24.688 43.904,24.376 L51.416,8.224 C51.488,8.08 51.656,7.96 51.824,7.96 L52.064,7.96 C52.232,7.96 52.4,8.08 52.472,8.224 L59.984,24.376 C60.128,24.688 59.936,25 59.576,25 L56.912,25 C56.48,25 56.288,24.856 56.072,24.4 L55.208,22.504 L48.68,22.504 L47.816,24.424 C47.696,24.712 47.432,25 46.952,25 L44.312,25 Z M50.12,19.24 L53.768,19.24 L51.944,15.28 L51.92,15.28 L50.12,19.24 Z M61.612,23.392 C61.372,23.152 61.3,23.056 61.492,22.72 L62.62,20.728 C62.812,20.416 63.268,20.464 63.436,20.584 C63.532,20.632 65.26,21.904 66.844,21.904 C67.804,21.904 68.5,21.304 68.5,20.464 C68.5,19.456 67.66,18.688 66.028,18.04 C63.964,17.224 61.372,15.616 61.372,12.736 C61.372,10.36 63.22,7.96 66.916,7.96 C69.412,7.96 71.332,9.232 72.052,9.76 C72.34,9.928 72.292,10.36 72.196,10.528 L70.972,12.376 C70.804,12.64 70.372,12.856 70.156,12.688 C69.94,12.568 68.188,11.248 66.724,11.248 C65.86,11.248 65.212,11.824 65.212,12.472 C65.212,13.36 65.932,14.032 67.828,14.8 C69.7,15.544 72.676,17.008 72.676,20.272 C72.676,22.744 70.54,25.24 67.012,25.24 C63.892,25.24 62.164,23.944 61.612,23.392 Z M75.264,23.392 C75.024,23.152 74.952,23.056 75.144,22.72 L76.272,20.728 C76.464,20.416 76.92,20.464 77.088,20.584 C77.184,20.632 78.912,21.904 80.496,21.904 C81.456,21.904 82.152,21.304 82.152,20.464 C82.152,19.456 81.312,18.688 79.68,18.04 C77.616,17.224 75.024,15.616 75.024,12.736 C75.024,10.36 76.872,7.96 80.568,7.96 C83.064,7.96 84.984,9.232 85.704,9.76 C85.992,9.928 85.944,10.36 85.848,10.528 L84.624,12.376 C84.456,12.64 84.024,12.856 83.808,12.688 C83.592,12.568 81.84,11.248 80.376,11.248 C79.512,11.248 78.864,11.824 78.864,12.472 C78.864,13.36 79.584,14.032 81.48,14.8 C83.352,15.544 86.328,17.008 86.328,20.272 C86.328,22.744 84.192,25.24 80.664,25.24 C77.544,25.24 75.816,23.944 75.264,23.392 Z M89.756,24.544 L89.756,8.656 C89.756,8.416 89.948,8.2 90.212,8.2 L100.148,8.2 C100.412,8.2 100.604,8.416 100.604,8.656 L100.604,11.272 C100.604,11.512 100.412,11.728 100.148,11.728 L93.5,11.728 L93.5,14.704 L98.972,14.704 C99.212,14.704 99.428,14.92 99.428,15.16 L99.428,17.776 C99.428,18.04 99.212,18.232 98.972,18.232 L93.5,18.232 L93.5,21.472 L100.148,21.472 C100.412,21.472 100.604,21.688 100.604,21.928 L100.604,24.544 C100.604,24.784 100.412,25 100.148,25 L90.212,25 C89.948,25 89.756,24.784 89.756,24.544 Z M103.264,24.472 L105.976,8.344 C106,8.128 106.216,7.96 106.408,7.96 L106.792,7.96 C106.912,7.96 107.128,8.056 107.2,8.2 L112.768,18.568 L112.816,18.568 L118.384,8.2 C118.456,8.056 118.672,7.96 118.792,7.96 L119.176,7.96 C119.368,7.96 119.584,8.128 119.608,8.344 L122.32,24.472 C122.368,24.784 122.152,25 121.864,25 L119.032,25 C118.816,25 118.6,24.808 118.576,24.616 L117.496,17.2 L117.448,17.2 L113.416,24.976 C113.344,25.12 113.128,25.24 113.008,25.24 L112.576,25.24 C112.432,25.24 112.24,25.12 112.168,24.976 L108.112,17.2 L108.064,17.2 L107.008,24.616 C106.984,24.808 106.792,25 106.552,25 L103.72,25 C103.432,25 103.216,24.784 103.264,24.472 Z M125.892,24.544 L125.892,8.656 C125.892,8.416 126.084,8.2 126.348,8.2 L131.94,8.2 C134.772,8.2 137.1,10.144 137.1,12.664 C137.1,14.512 135.444,15.856 134.316,16.456 C135.588,16.984 137.532,18.16 137.532,20.368 C137.532,23.056 135.156,25 132.3,25 L126.348,25 C126.084,25 125.892,24.784 125.892,24.544 Z M129.636,15.016 L131.508,15.016 C132.42,15.016 133.188,14.248 133.188,13.288 C133.188,12.328 132.42,11.656 131.508,11.656 L129.636,11.656 L129.636,15.016 Z M129.636,21.568 L131.82,21.568 C132.756,21.568 133.548,20.8 133.548,19.816 C133.548,18.856 132.516,18.136 131.58,18.136 L129.636,18.136 L129.636,21.568 Z M141.08,24.544 L141.08,8.656 C141.08,8.416 141.272,8.2 141.536,8.2 L144.392,8.2 C144.632,8.2 144.848,8.416 144.848,8.656 L144.848,21.472 L150.56,21.472 C150.824,21.472 151.016,21.688 151.016,21.928 L151.016,24.544 C151.016,24.784 150.824,25 150.56,25 L141.536,25 C141.272,25 141.08,24.784 141.08,24.544 Z M155.788,24.544 L155.788,16.912 L150.484,8.896 C150.292,8.584 150.484,8.2 150.868,8.2 L153.988,8.2 C154.18,8.2 154.3,8.32 154.372,8.416 L157.708,13.336 L161.044,8.416 C161.116,8.32 161.212,8.2 161.428,8.2 L164.548,8.2 C164.932,8.2 165.124,8.584 164.932,8.896 L159.556,16.888 L159.556,24.544 C159.556,24.784 159.34,25 159.1,25 L156.244,25 C155.98,25 155.788,24.784 155.788,24.544 Z" id="ASSEMBLY" fill="#FFFFFF" fill-rule="nonzero"></path>
                        <g id="Triangles">
                            <path d="M25.5777088,7.15541753 L33.1055728,22.2111456 C34.0935298,24.1870596 33.2926324,26.5897518 31.3167184,27.5777088 C30.7612967,27.8554196 30.1488444,28 29.527864,28 L14.472136,28 C12.262997,28 10.472136,26.209139 10.472136,24 C10.472136,23.3790196 10.6167163,22.7665674 10.8944272,22.2111456 L18.4222912,7.15541753 C19.4102482,5.17950354 21.8129404,4.37860615 23.7888544,5.36656315 C24.562964,5.75361795 25.190654,6.38130792 25.5777088,7.15541753 Z" id="Triangle" fill="url(#linearGradient-1)"></path>
                            <path d="M15.5777088,11.1554175 L24,28 L6.47213595,28 C4.26299696,28 2.47213595,26.209139 2.47213595,24 C2.47213595,23.3790196 2.61671632,22.7665674 2.89442719,22.2111456 L8.42229124,11.1554175 C9.41024823,9.17950354 11.8129404,8.37860615 13.7888544,9.36656315 C14.562964,9.75361795 15.190654,10.3813079 15.5777088,11.1554175 Z" id="Triangle" fill="#F50057"></path>
                        </g>
                    </g>
                </g>
            </g>
        </g>
    </g>
</svg>